<svg width="52" height="52" viewBox="0 0 52 52" fill="none" xmlns="http://www.w3.org/2000/svg" xmlns:xlink="http://www.w3.org/1999/xlink">
<path d="M45.067,10.4L6.933,10.4L6.933,41.6L31.2,41.6L31.2,31.2L45.067,31.2L45.067,10.4M3.183,6.65L6.933,6.65L45.067,6.65L48.817,6.65L48.817,10.4L48.817,31.2L48.817,34.95L45.067,34.95L34.95,34.95L34.95,41.6L34.95,45.35L31.2,45.35L6.933,45.35L3.183,45.35L3.183,41.6L3.183,10.4" fill-rule="evenodd" fill="#FFFFFF" fill-opacity="0"/>
<rect  x="27.733" y="32.933" width="3.467" height="3.467" transform="rotate(360 27.733 32.933)" fill="#FFFFFF"/>
<rect  x="17.333" y="32.933" width="3.467" height="3.467" transform="rotate(360 17.333 32.933)" fill="#FFFFFF"/>
<rect  x="36.4" y="22.533" width="3.467" height="3.467" transform="rotate(360 36.4 22.533)" fill="#FFFFFF"/>
<rect  x="27.733" y="22.533" width="3.467" height="3.467" transform="rotate(360 27.733 22.533)" fill="#FFFFFF"/>
<rect  x="17.333" y="22.533" width="3.467" height="3.467" transform="rotate(360 17.333 22.533)" fill="#FFFFFF"/>
</svg>
