<svg width="68" height="70" viewBox="0 0 68 70" fill="none" xmlns="http://www.w3.org/2000/svg" xmlns:xlink="http://www.w3.org/1999/xlink">
<path d="M68,34.97C68,53.747 52.777,68.97 34,68.97C15.222,68.97 0,53.747 0,34.97C0,16.192 15.222,0.97 34,0.97C52.777,0.97 68,16.192 68,34.97Z" fill="url(#pattern_0_265_517)"/>
<path d="M68,34.97C68,53.747 52.777,68.97 34,68.97C15.222,68.97 0,53.747 0,34.97C0,16.192 15.222,0.97 34,0.97C52.777,0.97 68,16.192 68,34.97Z" fill="url(#pattern_1_265_517)"/>
<path d="M68,34.97C68,53.747 52.777,68.97 34,68.97C15.222,68.97 0,53.747 0,34.97C0,16.192 15.222,0.97 34,0.97C52.777,0.97 68,16.192 68,34.97Z" stroke="#FFFFFF" stroke-width="1" stroke-miterlimit="3.999327"/>
</svg>
