<svg width="36" height="36" viewBox="0 0 36 36" fill="none" xmlns="http://www.w3.org/2000/svg" xmlns:xlink="http://www.w3.org/1999/xlink">
<path d="M19.166,0.758L24.024,11.07L34.887,12.726C35.127,12.762 35.353,12.868 35.538,13.032C35.723,13.196 35.861,13.41 35.936,13.652C36.011,13.894 36.02,14.152 35.962,14.399C35.904,14.645 35.781,14.87 35.607,15.047L27.745,23.068L29.601,34.405C29.642,34.655 29.615,34.912 29.524,35.148C29.432,35.383 29.28,35.587 29.084,35.736C28.888,35.885 28.656,35.974 28.414,35.993C28.172,36.011 27.93,35.958 27.716,35.84L18.001,30.496L8.284,35.845C8.07,35.963 7.828,36.015 7.586,35.996C7.344,35.978 7.112,35.889 6.916,35.739C6.72,35.59 6.568,35.386 6.477,35.151C6.385,34.915 6.358,34.658 6.399,34.408L8.255,23.078L0.393,15.057C0.219,14.88 0.096,14.655 0.038,14.409C-0.02,14.162 -0.011,13.903 0.064,13.662C0.139,13.42 0.277,13.205 0.462,13.042C0.647,12.878 0.873,12.772 1.113,12.736L11.976,11.071L16.834,0.759C16.941,0.531 17.107,0.34 17.313,0.206C17.519,0.071 17.757,0 18,0C18.242,0 18.48,0.071 18.686,0.205C18.892,0.338 19.058,0.53 19.166,0.758L19.166,0.758Z" fill="#D4B363"/>
</svg>
