<svg width="36" height="34" viewBox="0 0 36 34" fill="none" xmlns="http://www.w3.org/2000/svg" xmlns:xlink="http://www.w3.org/1999/xlink">
<path d="M18,0.2C18.583,0.2 19.143,0.421 19.556,0.815C19.968,1.209 20.2,1.743 20.2,2.3L20.2,4.4C20.2,4.957 19.968,5.491 19.556,5.885C19.143,6.279 18.583,6.5 18,6.5C17.416,6.5 16.857,6.279 16.444,5.885C16.032,5.491 15.8,4.957 15.8,4.4L15.8,2.3C15.8,1.743 16.032,1.209 16.444,0.815C16.857,0.421 17.416,0.2 18,0.2L18,0.2ZM26.8,17C26.8,19.228 25.873,21.364 24.223,22.94C22.572,24.515 20.334,25.4 18,25.4C15.666,25.4 13.428,24.515 11.777,22.94C10.127,21.364 9.2,19.228 9.2,17C9.2,14.772 10.127,12.636 11.777,11.06C13.428,9.485 15.666,8.6 18,8.6C20.334,8.6 22.572,9.485 24.223,11.06C25.873,12.636 26.8,14.772 26.8,17L26.8,17ZM25.779,27.395L27.335,28.88C27.75,29.262 28.305,29.474 28.882,29.469C29.459,29.464 30.011,29.243 30.419,28.854C30.826,28.465 31.058,27.938 31.063,27.387C31.068,26.837 30.846,26.306 30.445,25.91L28.89,24.426C28.475,24.043 27.919,23.831 27.343,23.836C26.766,23.841 26.214,24.062 25.806,24.451C25.398,24.841 25.167,25.367 25.162,25.918C25.157,26.468 25.378,26.999 25.779,27.395L25.779,27.395ZM30.443,5.12C30.856,5.514 31.087,6.048 31.087,6.605C31.087,7.162 30.856,7.696 30.443,8.09L28.89,9.574C28.687,9.775 28.444,9.935 28.176,10.045C27.907,10.155 27.619,10.213 27.327,10.215C27.035,10.218 26.745,10.165 26.474,10.059C26.204,9.953 25.958,9.798 25.752,9.6C25.545,9.403 25.382,9.169 25.271,8.911C25.161,8.653 25.105,8.376 25.108,8.097C25.11,7.818 25.171,7.543 25.286,7.287C25.401,7.03 25.569,6.799 25.779,6.605L27.335,5.12C27.747,4.727 28.307,4.505 28.89,4.505C29.473,4.505 30.033,4.727 30.445,5.12L30.443,5.12ZM33.4,19.1C33.983,19.1 34.543,18.879 34.956,18.485C35.368,18.091 35.6,17.557 35.6,17C35.6,16.443 35.368,15.909 34.956,15.515C34.543,15.121 33.983,14.9 33.4,14.9L31.2,14.9C30.617,14.9 30.057,15.121 29.644,15.515C29.232,15.909 29,16.443 29,17C29,17.557 29.232,18.091 29.644,18.485C30.057,18.879 30.617,19.1 31.2,19.1L33.4,19.1ZM18,27.5C18.583,27.5 19.143,27.721 19.556,28.115C19.968,28.509 20.2,29.043 20.2,29.6L20.2,31.7C20.2,32.257 19.968,32.791 19.556,33.185C19.143,33.579 18.583,33.8 18,33.8C17.416,33.8 16.857,33.579 16.444,33.185C16.032,32.791 15.8,32.257 15.8,31.7L15.8,29.6C15.8,29.043 16.032,28.509 16.444,28.115C16.857,27.721 17.416,27.5 18,27.5L18,27.5ZM7.11,9.574C7.314,9.769 7.557,9.924 7.824,10.03C8.091,10.136 8.377,10.19 8.666,10.19C8.955,10.19 9.241,10.136 9.508,10.03C9.775,9.925 10.017,9.77 10.222,9.575C10.426,9.38 10.588,9.149 10.699,8.894C10.81,8.639 10.867,8.366 10.867,8.09C10.867,7.815 10.81,7.541 10.7,7.287C10.589,7.032 10.427,6.8 10.223,6.605L8.665,5.12C8.25,4.738 7.695,4.526 7.118,4.531C6.541,4.536 5.989,4.756 5.581,5.146C5.173,5.535 4.942,6.062 4.937,6.613C4.932,7.163 5.154,7.694 5.555,8.09L7.11,9.574L7.11,9.574ZM10.221,27.395L8.665,28.88C8.25,29.262 7.695,29.474 7.118,29.469C6.541,29.464 5.989,29.243 5.581,28.854C5.173,28.465 4.942,27.938 4.937,27.387C4.932,26.837 5.154,26.306 5.555,25.91L7.11,24.426C7.525,24.043 8.081,23.831 8.657,23.836C9.234,23.841 9.786,24.062 10.194,24.451C10.602,24.841 10.833,25.367 10.838,25.918C10.843,26.468 10.621,26.999 10.221,27.395L10.221,27.395ZM4.8,19.1C5.383,19.1 5.943,18.879 6.356,18.485C6.768,18.091 7,17.557 7,17C7,16.443 6.768,15.909 6.356,15.515C5.943,15.121 5.383,14.9 4.8,14.9L2.6,14.9C2.016,14.9 1.457,15.121 1.044,15.515C0.632,15.909 0.4,16.443 0.4,17C0.4,17.557 0.632,18.091 1.044,18.485C1.457,18.879 2.016,19.1 2.6,19.1L4.8,19.1Z" clip-rule="evenodd" fill-rule="evenodd" fill="#EBCB87"/>
</svg>
